<?xml version="1.0" standalone="no"?>
<!DOCTYPE svg PUBLIC "-//W3C//DTD SVG 20010904//EN"
 "http://www.w3.org/TR/2001/REC-SVG-20010904/DTD/svg10.dtd">
<svg version="1.0" xmlns="http://www.w3.org/2000/svg"
 width="512.000000pt" height="512.000000pt" viewBox="0 0 512.000000 512.000000"
 preserveAspectRatio="xMidYMid meet">
<metadata>
Created by potrace 1.14, written by Peter Selinger 2001-2017
</metadata>
<g transform="translate(0.000000,512.000000) scale(0.100000,-0.100000)"
fill="#000000" stroke="none">
<path d="M2073 5106 c-104 -34 -176 -98 -222 -196 -37 -80 -37 -202 0 -281 37
-79 90 -133 169 -173 l68 -34 -87 -158 c-48 -88 -110 -202 -138 -254 -53 -101
-305 -568 -356 -660 -52 -94 -73 -132 -117 -215 -24 -44 -55 -102 -70 -130
-15 -27 -76 -140 -135 -250 -101 -187 -138 -257 -205 -380 -30 -55 -272 -501
-328 -605 -19 -36 -47 -87 -62 -115 -15 -27 -43 -79 -62 -115 -109 -202 -178
-330 -200 -370 -14 -25 -60 -110 -103 -190 -43 -80 -90 -167 -105 -195 -105
-191 -121 -240 -116 -355 6 -132 51 -228 148 -315 149 -134 346 -150 543 -44
28 15 146 79 263 143 118 64 215 116 217 116 2 0 47 25 100 55 54 30 99 55
101 55 2 0 50 25 106 56 57 31 130 72 164 90 l61 33 39 -41 c50 -52 92 -70
160 -67 68 3 119 31 158 87 26 37 30 52 34 129 2 49 4 92 5 96 2 5 97 60 212
122 l210 113 7 -31 c4 -18 10 -70 14 -117 3 -47 8 -92 9 -100 2 -8 6 -53 10
-100 3 -47 8 -96 10 -110 2 -14 7 -58 10 -98 6 -58 13 -82 39 -120 89 -133
289 -121 363 21 20 39 21 51 38 282 3 44 8 103 10 130 2 28 7 91 10 140 3 50
8 108 10 130 2 22 7 90 10 150 4 61 12 115 19 121 6 7 155 89 331 184 176 95
339 183 363 196 23 13 86 47 140 75 53 29 102 55 107 59 6 4 64 35 130 70 66
34 124 66 128 70 8 7 -28 90 -39 90 -4 0 -86 -44 -299 -160 -50 -27 -386 -208
-525 -283 -41 -22 -79 -43 -85 -47 -23 -16 -247 -131 -250 -128 -1 2 1 29 5
60 12 85 51 138 135 184 11 6 85 46 165 88 80 43 159 86 175 96 17 9 73 40
125 67 265 140 418 228 448 256 107 102 119 275 27 389 -66 80 -73 107 -77
278 -4 136 -7 161 -27 202 -35 73 -88 118 -216 183 -166 85 -163 82 -236 293
-65 190 -137 238 -394 267 -93 10 -129 36 -215 155 -125 172 -201 207 -385
175 -130 -23 -192 -24 -230 -3 -130 72 -143 76 -210 75 -36 -1 -65 0 -65 3 0
3 20 41 44 85 l44 80 103 -2 c124 -3 299 -31 462 -73 123 -32 258 -84 402
-155 532 -262 938 -724 1134 -1290 36 -106 87 -310 95 -386 3 -30 8 -65 11
-79 3 -14 7 -86 10 -160 3 -74 8 -150 11 -168 15 -97 94 -198 191 -248 52 -26
68 -29 153 -29 85 0 101 3 152 29 69 35 128 94 165 166 27 52 28 62 29 195 3
352 -74 726 -221 1087 -264 645 -776 1192 -1412 1512 -87 43 -335 144 -403
164 -19 6 -66 20 -105 32 -90 27 -341 77 -425 85 -36 4 -71 8 -78 11 -8 2 -91
6 -185 9 -130 4 -182 2 -214 -9z m392 -100 c17 -3 80 -12 140 -21 369 -54 740
-192 1075 -400 344 -214 692 -561 905 -905 125 -202 225 -415 295 -632 31 -92
85 -307 95 -373 3 -22 10 -67 15 -100 5 -33 12 -79 14 -102 l5 -41 -55 33
c-132 80 -284 70 -405 -26 -21 -17 -39 -27 -40 -22 0 4 -2 17 -4 28 -2 11 -7
43 -10 70 -4 28 -17 100 -30 160 -93 432 -311 831 -630 1150 -195 196 -390
336 -630 454 -216 107 -510 197 -705 217 -36 3 -67 8 -70 10 -3 1 -62 5 -130
9 -172 8 -206 13 -254 40 -181 102 -157 380 40 450 29 11 77 13 194 10 85 -3
169 -7 185 -9z m-199 -885 c127 -71 180 -80 314 -55 199 38 231 26 346 -136
109 -151 144 -171 359 -195 145 -17 183 -51 239 -215 21 -63 47 -131 56 -150
30 -58 83 -102 192 -159 157 -81 165 -87 192 -144 22 -47 25 -67 28 -207 4
-170 14 -203 81 -279 54 -63 67 -118 46 -194 -19 -70 -37 -84 -304 -227 -44
-23 -93 -50 -110 -60 -16 -9 -70 -39 -120 -65 -49 -26 -117 -62 -150 -80 -33
-18 -116 -63 -185 -100 -141 -76 -190 -117 -225 -190 -30 -62 -36 -102 -50
-315 -3 -41 -7 -106 -10 -145 -3 -38 -8 -101 -11 -140 -2 -38 -7 -95 -9 -125
-2 -30 -7 -89 -10 -130 -3 -41 -7 -100 -10 -130 -2 -30 -7 -91 -10 -134 -9
-113 -44 -156 -127 -156 -34 0 -97 55 -99 87 0 10 -2 26 -4 36 -2 9 -6 50 -10
90 -3 39 -8 92 -10 117 -3 25 -7 74 -10 110 -15 190 -23 239 -47 289 -117 244
-460 247 -579 4 -22 -44 -24 -63 -29 -248 -3 -110 -9 -208 -14 -218 -10 -22
-57 -47 -88 -47 -24 0 -88 34 -88 48 0 20 -140 150 -185 171 -63 29 -150 38
-211 21 -38 -11 -418 -217 -859 -465 -167 -94 -197 -106 -249 -104 -116 5
-201 89 -201 200 0 59 15 94 115 279 26 47 65 119 87 160 22 41 158 291 300
555 143 264 280 516 303 560 24 44 69 127 100 185 31 58 76 141 100 185 23 44
53 98 65 120 12 22 42 76 65 120 43 81 91 169 140 260 15 28 43 79 63 115 96
178 232 429 251 465 12 22 78 142 146 268 l123 227 36 -6 c104 -19 205 -99
255 -204 27 -57 31 -76 31 -150 0 -76 -3 -93 -32 -151 -39 -79 -102 -140 -181
-177 -47 -22 -71 -26 -137 -26 -44 0 -94 4 -111 8 -29 7 -31 6 -47 -35 -20
-51 -18 -53 70 -69 269 -51 519 143 540 421 16 203 -120 405 -312 465 -53 17
-54 18 -37 37 51 58 154 70 228 28z m2617 -1730 c180 -87 177 -349 -4 -442
-151 -76 -331 24 -354 198 -16 113 67 236 179 264 51 13 128 4 179 -20z
m-2498 -1197 c11 -4 35 -15 53 -26 l33 -20 -28 -17 c-15 -10 -64 -37 -108 -61
-44 -24 -111 -60 -148 -82 -38 -21 -73 -38 -78 -38 -16 0 -9 84 11 129 45 98
158 147 265 115z m-803 -460 c18 -9 39 -21 46 -27 14 -11 10 -13 -193 -122
-55 -29 -250 -135 -434 -234 -466 -253 -448 -245 -551 -246 -72 0 -94 4 -140
26 -101 49 -102 54 -3 54 103 0 69 -15 478 212 149 82 299 166 335 185 36 20
113 63 172 96 59 33 119 64 135 70 39 13 115 7 155 -14z"/>
<path d="M3010 3574 c-125 -63 -204 -180 -204 -304 0 -56 4 -72 29 -110 41
-59 93 -85 170 -84 200 3 381 233 320 407 -27 79 -88 120 -184 123 -54 1 -73
-3 -131 -32z m179 -79 c91 -47 38 -220 -89 -289 -58 -32 -115 -39 -152 -20
-28 14 -50 65 -43 99 2 11 4 27 4 36 1 25 60 108 97 136 65 49 134 64 183 38z"/>
<path d="M2356 3063 c-27 -4 -28 -6 -22 -46 9 -60 78 -196 123 -241 l38 -38
32 38 33 37 -35 38 c-41 46 -63 86 -86 159 -18 58 -24 62 -83 53z"/>
<path d="M3026 2914 c-147 -35 -279 -159 -323 -302 -95 -312 146 -622 467
-599 260 19 449 240 426 497 -10 116 -50 201 -135 286 -113 113 -274 157 -435
118z m207 -99 c104 -27 186 -97 234 -200 24 -51 28 -72 28 -145 -1 -71 -5 -95
-28 -145 -87 -188 -300 -265 -483 -175 -79 39 -128 89 -168 170 -27 57 -31 75
-31 150 0 71 5 95 28 145 77 165 245 246 420 200z"/>
<path d="M1704 2665 c-116 -31 -231 -121 -287 -223 -120 -221 -41 -497 179
-622 143 -82 343 -75 478 17 239 163 275 502 74 701 -65 64 -97 86 -168 113
-69 27 -203 33 -276 14z m262 -119 c195 -89 272 -335 160 -510 -79 -123 -184
-178 -325 -172 -254 11 -414 280 -302 510 33 68 48 87 106 133 96 75 246 91
361 39z"/>
<path d="M1579 1601 c-36 -43 -164 -111 -209 -111 -27 0 -33 -15 -25 -62 l7
-40 45 6 c25 3 73 19 107 36 61 29 166 104 166 119 0 4 -17 21 -38 38 -35 29
-39 30 -53 14z"/>
<path d="M775 1435 c-71 -25 -125 -105 -125 -184 0 -55 33 -140 77 -195 105
-135 276 -182 381 -106 162 117 52 416 -178 484 -65 19 -102 20 -155 1z m157
-108 c141 -60 208 -267 99 -305 -105 -37 -266 88 -276 212 -8 98 70 139 177
93z"/>
</g>
</svg>
